<?xml version="1.0" encoding="UTF-8" standalone="no"?>
<svg
   xmlns:dc="http://purl.org/dc/elements/1.1/"
   xmlns:cc="http://creativecommons.org/ns#"
   xmlns:rdf="http://www.w3.org/1999/02/22-rdf-syntax-ns#"
   xmlns:svg="http://www.w3.org/2000/svg"
   xmlns="http://www.w3.org/2000/svg"
   xmlns:sodipodi="http://sodipodi.sourceforge.net/DTD/sodipodi-0.dtd"
   xmlns:inkscape="http://www.inkscape.org/namespaces/inkscape"
   width="14"
   height="16"
   viewBox="0 0 14 16"
   version="1.1"
   id="svg4"
   sodipodi:docname="mail.svg"
   inkscape:version="0.92.3 (2405546, 2018-03-11)">
  <metadata
     id="metadata10">
    <rdf:RDF>
      <cc:Work
         rdf:about="">
        <dc:format>image/svg+xml</dc:format>
        <dc:type
           rdf:resource="http://purl.org/dc/dcmitype/StillImage" />
      </cc:Work>
    </rdf:RDF>
  </metadata>
  <defs
     id="defs8" />
  <sodipodi:namedview
     pagecolor="#ffffff"
     bordercolor="#666666"
     borderopacity="1"
     objecttolerance="10"
     gridtolerance="10"
     guidetolerance="10"
     inkscape:pageopacity="0"
     inkscape:pageshadow="2"
     inkscape:window-width="1920"
     inkscape:window-height="1017"
     id="namedview6"
     showgrid="false"
     inkscape:zoom="64"
     inkscape:cx="6.5046742"
     inkscape:cy="6.8925494"
     inkscape:window-x="3832"
     inkscape:window-y="-8"
     inkscape:window-maximized="1"
     inkscape:current-layer="svg4" />
  <path
     fill-rule="evenodd"
     d="M0 4v8c0 .55.45 1 1 1h12c.55 0 1-.45 1-1V4c0-.55-.45-1-1-1H1c-.55 0-1 .45-1 1zm13 0L7 9 1 4h12zM1 5.5l4 3-4 3v-6zM2 12l3.5-3L7 10.5 8.5 9l3.5 3H2zm11-.5l-4-3 4-3v6z"
     id="path2" />
  <path
     style="fill:#f9f9f9;fill-opacity:1;stroke:#803300;stroke-width:0.06779661;stroke-opacity:1"
     d="M 0.66101695,12.894685 C 0.41141926,12.783064 0.18539233,12.544218 0.08926186,12.290502 0.04093687,12.162958 0.01694915,10.736345 0.01694915,7.9898729 c 0,-4.0397899 0.0024307,-4.1147958 0.14273879,-4.4046337 0.097788,-0.2020031 0.225039,-0.3368454 0.40407877,-0.4281847 C 0.81796264,3.0273734 0.99390536,3.0237288 7,3.0237288 c 6.104241,0 6.178031,0.0016 6.449089,0.1398844 0.200034,0.1020495 0.309734,0.2202233 0.405588,0.4369174 0.12607,0.2850015 0.130644,0.4672485 0.112934,4.4992543 -0.01811,4.1238091 -0.02107,4.2057141 -0.158241,4.3894011 -0.07688,0.10295 -0.224023,0.250084 -0.326984,0.326964 -0.185539,0.138539 -0.242453,0.139914 -6.4025907,0.154636 -5.0769221,0.01213 -6.25264323,-0.0018 -6.41877835,-0.0761 z M 12.012803,11.989831 C 12.008837,11.941174 8.9021403,9.2621001 8.6191519,9.0632992 8.4914834,8.9736117 8.4339342,9.0156575 7.7468834,9.7005776 L 7.0113017,10.433879 6.2612368,9.7024339 C 5.5844341,9.0424321 5.4995039,8.9801866 5.391709,9.0651555 5.0355526,9.3458947 1.9830508,11.982056 1.9830508,12.008896 c 0,0.01748 2.2576272,0.03178 5.0169492,0.03178 2.759322,0 5.015083,-0.02288 5.012803,-0.05085 z M 3.0526061,10.000732 C 4.1505797,9.177067 5.0226602,8.4794898 4.9905626,8.4505607 4.9008485,8.3697026 1.1470995,5.5655872 1.0508475,5.5075254 0.9835539,5.4669321 0.96610169,6.0785278 0.96610169,8.4773548 c 0,1.6615222 0.0202925,3.0209502 0.0450944,3.0209502 0.024802,0 0.9434364,-0.673908 2.04141,-1.497573 z M 13.033898,8.4773548 c 0,-2.398827 -0.01745,-3.0104227 -0.08474,-2.9698294 -0.09615,0.057999 -3.8499191,2.8621078 -3.9396215,2.9429409 -0.052794,0.047574 3.8538965,3.0426227 3.9735195,3.0462827 0.02797,8.54e-4 0.05085,-1.357872 0.05085,-3.0193942 z M 10.058321,6.4983051 13.047753,4.0067797 10.023876,3.9891325 c -1.6631316,-0.00971 -4.3846172,-0.00971 -6.0477454,0 L 0.95226122,4.0067797 3.9252832,6.4932361 c 1.635162,1.367551 3.0114036,2.4887375 3.0583148,2.4915254 0.046911,0.00279 1.4305362,-1.1161174 3.074723,-2.4864564 z"
     id="path22"
     inkscape:connector-curvature="0" />
</svg>
