<?xml version="1.0" encoding="UTF-8" standalone="no"?>
<svg
   xmlns:dc="http://purl.org/dc/elements/1.1/"
   xmlns:cc="http://creativecommons.org/ns#"
   xmlns:rdf="http://www.w3.org/1999/02/22-rdf-syntax-ns#"
   xmlns:svg="http://www.w3.org/2000/svg"
   xmlns="http://www.w3.org/2000/svg"
   xmlns:sodipodi="http://sodipodi.sourceforge.net/DTD/sodipodi-0.dtd"
   xmlns:inkscape="http://www.inkscape.org/namespaces/inkscape"
   width="16"
   height="16"
   viewBox="0 0 16 16"
   version="1.1"
   id="svg4"
   sodipodi:docname="organization.svg"
   inkscape:version="0.92.3 (2405546, 2018-03-11)">
  <metadata
     id="metadata10">
    <rdf:RDF>
      <cc:Work
         rdf:about="">
        <dc:format>image/svg+xml</dc:format>
        <dc:type
           rdf:resource="http://purl.org/dc/dcmitype/StillImage" />
      </cc:Work>
    </rdf:RDF>
  </metadata>
  <defs
     id="defs8" />
  <sodipodi:namedview
     pagecolor="#ffffff"
     bordercolor="#666666"
     borderopacity="1"
     objecttolerance="10"
     gridtolerance="10"
     guidetolerance="10"
     inkscape:pageopacity="0"
     inkscape:pageshadow="2"
     inkscape:window-width="1920"
     inkscape:window-height="1017"
     id="namedview6"
     showgrid="false"
     inkscape:zoom="14.75"
     inkscape:cx="8"
     inkscape:cy="8"
     inkscape:window-x="1912"
     inkscape:window-y="-8"
     inkscape:window-maximized="1"
     inkscape:current-layer="svg4" />
  <path
     fill-rule="evenodd"
     d="M16 12.999c0 .439-.45 1-1 1H7.995c-.539 0-.994-.447-.995-.999H1c-.54 0-1-.561-1-1 0-2.634 3-4 3-4s.229-.409 0-1c-.841-.621-1.058-.59-1-3 .058-2.419 1.367-3 2.5-3s2.442.58 2.5 3c.058 2.41-.159 2.379-1 3-.229.59 0 1 0 1s1.549.711 2.42 2.088C9.196 9.369 10 8.999 10 8.999s.229-.409 0-1c-.841-.62-1.058-.59-1-3 .058-2.419 1.367-3 2.5-3s2.437.581 2.495 3c.059 2.41-.158 2.38-1 3-.229.59 0 1 0 1s3.005 1.366 3.005 4z"
     id="path2" />
  <path
     style="fill:#ffffff;fill-opacity:1;stroke:#803300;stroke-width:0.06779661;stroke-opacity:1"
     d="M 7.4915254,13.804237 C 7.2753336,13.661958 7.0508475,13.308068 7.0508475,13.109532 c 0,-0.112632 -0.1803024,-0.119701 -3.0530251,-0.119701 -3.31898389,0 -3.32967338,-0.0011 -3.68420344,-0.382312 C 0.06664226,12.341961 0.01036841,12.088095 0.07657527,11.538152 0.1705187,10.757817 0.57341939,10.01444 1.3051071,9.2714339 1.6649703,8.9060041 2.7547929,8.1054644 3.0067424,8.0214814 c 0.049239,-0.016413 0.078003,-0.2071763 0.078003,-0.5173122 0,-0.4688287 -0.00931,-0.4978746 -0.2033899,-0.634747 C 2.4414566,6.5591935 2.1844673,6.2276081 2.1081576,5.8717884 2.0019655,5.3766318 2.015654,3.7411808 2.1310379,3.1381233 2.3816167,1.8284662 3.0999016,1.1394075 4.2861097,1.0707389 c 0.2984637,-0.017278 0.703731,0.00476 0.9015293,0.049027 0.4889077,0.1094128 1.0282336,0.5091461 1.3013598,0.9645317 0.369267,0.6156818 0.455951,1.0820079 0.4581836,2.4648553 0.00237,1.4706532 -0.063953,1.7198582 -0.5629902,2.115257 C 6.2101746,6.8022881 6.029661,6.960625 5.9830508,7.0162697 c -0.090874,0.108488 -0.1154094,0.8043117 -0.03286,0.9319063 0.027395,0.042344 0.2154915,0.1744637 0.417992,0.2935993 0.7298275,0.4293749 1.5301224,1.1364414 1.8653305,1.6480339 0.066586,0.1016224 0.1487193,0.1847668 0.1825193,0.1847668 0.0338,0 0.2514773,-0.147941 0.4837282,-0.3287593 0.23225,-0.1808187 0.5748155,-0.4157943 0.7612561,-0.5221692 0.1864407,-0.106375 0.3613971,-0.2253817 0.3887921,-0.2644604 0.0274,-0.039078 0.05028,-0.2478617 0.05085,-0.4639634 0.0011,-0.4229518 0.03046,-0.3764318 -0.5949756,-0.9431264 C 9.1491132,7.2290208 9.0811261,6.9898106 9.0364644,5.9011798 8.9582047,3.993595 9.3233186,2.9111797 10.228268,2.3679681 11.170159,1.8025808 12.5815,1.9849761 13.242797,2.757552 c 0.564551,0.6595513 0.752845,1.4673862 0.709937,3.0458378 -0.03448,1.2685153 -0.125217,1.5427297 -0.630357,1.9050681 -0.351437,0.2520865 -0.441502,0.4146316 -0.440096,0.7942607 0.0015,0.4125851 0.06257,0.5258021 0.36193,0.67124 0.441068,0.2142875 1.34454,0.9229054 1.684394,1.3211164 0.654994,0.767463 1.00031,1.558108 1.011685,2.316383 0.0074,0.494492 -0.04475,0.619834 -0.380736,0.914838 l -0.242238,0.212687 -3.811201,-4.75e-4 c -3.6804086,-4.06e-4 -3.8181794,-0.005 -4.0145896,-0.134299 z"
     id="path12"
     inkscape:connector-curvature="0" />
</svg>
