<?xml version="1.0" encoding="UTF-8" standalone="no"?>
<svg
   xmlns:dc="http://purl.org/dc/elements/1.1/"
   xmlns:cc="http://creativecommons.org/ns#"
   xmlns:rdf="http://www.w3.org/1999/02/22-rdf-syntax-ns#"
   xmlns:svg="http://www.w3.org/2000/svg"
   xmlns="http://www.w3.org/2000/svg"
   xmlns:sodipodi="http://sodipodi.sourceforge.net/DTD/sodipodi-0.dtd"
   xmlns:inkscape="http://www.inkscape.org/namespaces/inkscape"
   width="12"
   height="16"
   viewBox="0 0 12 16"
   version="1.1"
   id="svg4"
   sodipodi:docname="three-bars.svg"
   inkscape:version="0.92.3 (2405546, 2018-03-11)">
  <metadata
     id="metadata10">
    <rdf:RDF>
      <cc:Work
         rdf:about="">
        <dc:format>image/svg+xml</dc:format>
        <dc:type
           rdf:resource="http://purl.org/dc/dcmitype/StillImage" />
      </cc:Work>
    </rdf:RDF>
  </metadata>
  <defs
     id="defs8" />
  <sodipodi:namedview
     pagecolor="#ffffff"
     bordercolor="#666666"
     borderopacity="1"
     objecttolerance="10"
     gridtolerance="10"
     guidetolerance="10"
     inkscape:pageopacity="0"
     inkscape:pageshadow="2"
     inkscape:window-width="1920"
     inkscape:window-height="1017"
     id="namedview6"
     showgrid="false"
     inkscape:zoom="14.75"
     inkscape:cx="6"
     inkscape:cy="8"
     inkscape:window-x="-8"
     inkscape:window-y="-8"
     inkscape:window-maximized="1"
     inkscape:current-layer="svg4" />
  <path
     fill-rule="evenodd"
     d="M11.41 9H.59C0 9 0 8.59 0 8c0-.59 0-1 .59-1H11.4c.59 0 .59.41.59 1 0 .59 0 1-.59 1h.01zm0-4H.59C0 5 0 4.59 0 4c0-.59 0-1 .59-1H11.4c.59 0 .59.41.59 1 0 .59 0 1-.59 1h.01zM.59 11H11.4c.59 0 .59.41.59 1 0 .59 0 1-.59 1H.59C0 13 0 12.59 0 12c0-.59 0-1 .59-1z"
     id="path2" />
  <path
     style="fill:#ffffff;fill-opacity:1;stroke:#803300;stroke-width:0.06779661;stroke-opacity:1"
     d="M 0.3210478,4.9195564 C 0.0938255,4.828271 0.02030044,4.5515823 0.04536302,3.8821027 0.08112115,2.92692 -0.59045246,3.0237288 6,3.0237288 c 6.54891,0 5.911649,-0.083656 5.955353,0.7817896 0.03295,0.6525932 -0.06923,1.030931 -0.302388,1.1195769 C 11.431469,5.0093079 0.53118984,5.00398 0.3210478,4.9195564 Z"
     id="path12"
     inkscape:connector-curvature="0" />
  <path
     style="fill:#ffffff;fill-opacity:1;stroke:#803300;stroke-width:0.06779661;stroke-opacity:1"
     d="M 0.3210478,8.9195564 C 0.0938255,8.828271 0.02030044,8.5515823 0.04536302,7.8821027 0.08112115,6.92692 -0.59045246,7.0237288 6,7.0237288 c 6.54891,0 5.911649,-0.083656 5.955353,0.7817896 0.03295,0.6525932 -0.06923,1.030931 -0.302388,1.1195769 C 11.431469,9.0093079 0.53118984,9.00398 0.3210478,8.9195564 Z"
     id="path14"
     inkscape:connector-curvature="0" />
  <path
     style="fill:#ffffff;fill-opacity:1;stroke:#803300;stroke-width:0.06779661;stroke-opacity:1"
     d="M 0.3210478,12.919556 C 0.0938255,12.828271 0.02030044,12.551582 0.04536302,11.882103 0.08112115,10.92692 -0.59045246,11.023729 6,11.023729 c 6.54891,0 5.911649,-0.08366 5.955353,0.781789 0.03295,0.652594 -0.06923,1.030931 -0.302388,1.119577 -0.221496,0.08421 -11.12177516,0.07888 -11.3319172,-0.0055 z"
     id="path16"
     inkscape:connector-curvature="0" />
</svg>
